# Tiled2Unity generated file. Do not modify by hand.
# Wavefront file for 'temple_mesh_0009.obj'

# Vertices (Count = 456)
v -4.16 -1.28 0
v -4.48 -1.28 0
v -4.48 -0.96 0
v -4.16 -0.96 0
v -4.48 -1.28 0
v -4.8 -1.28 0
v -4.8 -0.96 0
v -4.48 -0.96 0
v -4.8 -1.28 0
v -5.12 -1.28 0
v -5.12 -0.96 0
v -4.8 -0.96 0
v -5.12 -1.28 0
v -5.44 -1.28 0
v -5.44 -0.96 0
v -5.12 -0.96 0
v -5.44 -1.28 0
v -5.76 -1.28 0
v -5.76 -0.96 0
v -5.44 -0.96 0
v -5.76 -1.28 0
v -6.08 -1.28 0
v -6.08 -0.96 0
v -5.76 -0.96 0
v -6.08 -1.28 0
v -6.4 -1.28 0
v -6.4 -0.96 0
v -6.08 -0.96 0
v -6.4 -1.28 0
v -6.72 -1.28 0
v -6.72 -0.96 0
v -6.4 -0.96 0
v -6.72 -1.28 0
v -7.04 -1.28 0
v -7.04 -0.96 0
v -6.72 -0.96 0
v -7.04 -1.28 0
v -7.36 -1.28 0
v -7.36 -0.96 0
v -7.04 -0.96 0
v -7.36 -1.28 0
v -7.68 -1.28 0
v -7.68 -0.96 0
v -7.36 -0.96 0
v -7.68 -1.28 0
v -8 -1.28 0
v -8 -0.96 0
v -7.68 -0.96 0
v -8 -1.28 0
v -8.32 -1.28 0
v -8.32 -0.96 0
v -8 -0.96 0
v -8.32 -1.28 0
v -8.639999 -1.28 0
v -8.639999 -0.96 0
v -8.32 -0.96 0
v -8.639999 -1.28 0
v -8.96 -1.28 0
v -8.96 -0.96 0
v -8.639999 -0.96 0
v -8.96 -1.28 0
v -9.28 -1.28 0
v -9.28 -0.96 0
v -8.96 -0.96 0
v -9.28 -1.28 0
v -9.599999 -1.28 0
v -9.599999 -0.96 0
v -9.28 -0.96 0
v -9.599999 -1.28 0
v -9.92 -1.28 0
v -9.92 -0.96 0
v -9.599999 -0.96 0
v -9.92 -1.28 0
v -10.24 -1.28 0
v -10.24 -0.96 0
v -9.92 -0.96 0
v -10.24 -1.28 0
v -10.56 -1.28 0
v -10.56 -0.96 0
v -10.24 -0.96 0
v -10.56 -1.28 0
v -10.88 -1.28 0
v -10.88 -0.96 0
v -10.56 -0.96 0
v -10.88 -1.28 0
v -11.2 -1.28 0
v -11.2 -0.96 0
v -10.88 -0.96 0
v -11.2 -1.28 0
v -11.52 -1.28 0
v -11.52 -0.96 0
v -11.2 -0.96 0
v -11.52 -1.28 0
v -11.84 -1.28 0
v -11.84 -0.96 0
v -11.52 -0.96 0
v -7.36 -2.56 0
v -7.68 -2.56 0
v -7.68 -2.24 0
v -7.36 -2.24 0
v -7.68 -2.56 0
v -8 -2.56 0
v -8 -2.24 0
v -7.68 -2.24 0
v -8 -2.56 0
v -8.32 -2.56 0
v -8.32 -2.24 0
v -8 -2.24 0
v -8.32 -2.56 0
v -8.639999 -2.56 0
v -8.639999 -2.24 0
v -8.32 -2.24 0
v -5.76 -6.4 0
v -6.08 -6.4 0
v -6.08 -6.08 0
v -5.76 -6.08 0
v -6.08 -6.4 0
v -6.4 -6.4 0
v -6.4 -6.08 0
v -6.08 -6.08 0
v -9.599999 -6.4 0
v -9.92 -6.4 0
v -9.92 -6.08 0
v -9.599999 -6.08 0
v -9.92 -6.4 0
v -10.24 -6.4 0
v -10.24 -6.08 0
v -9.92 -6.08 0
v -5.12 -6.72 0
v -5.44 -6.72 0
v -5.44 -6.4 0
v -5.12 -6.4 0
v -5.44 -6.72 0
v -5.76 -6.72 0
v -5.76 -6.4 0
v -5.44 -6.4 0
v -10.24 -6.72 0
v -10.56 -6.72 0
v -10.56 -6.4 0
v -10.24 -6.4 0
v -10.56 -6.72 0
v -10.88 -6.72 0
v -10.88 -6.4 0
v -10.56 -6.4 0
v -0.96 -8.32 0
v -1.28 -8.32 0
v -1.28 -8 0
v -0.96 -8 0
v -1.28 -8.32 0
v -1.6 -8.32 0
v -1.6 -8 0
v -1.28 -8 0
v -1.6 -8.32 0
v -1.92 -8.32 0
v -1.92 -8 0
v -1.6 -8 0
v -1.92 -8.32 0
v -2.24 -8.32 0
v -2.24 -8 0
v -1.92 -8 0
v -2.24 -8.32 0
v -2.56 -8.32 0
v -2.56 -8 0
v -2.24 -8 0
v -2.56 -8.32 0
v -2.88 -8.32 0
v -2.88 -8 0
v -2.56 -8 0
v -2.88 -8.32 0
v -3.2 -8.32 0
v -3.2 -8 0
v -2.88 -8 0
v -3.2 -8.32 0
v -3.52 -8.32 0
v -3.52 -8 0
v -3.2 -8 0
v -3.52 -8.32 0
v -3.84 -8.32 0
v -3.84 -8 0
v -3.52 -8 0
v -3.84 -8.32 0
v -4.16 -8.32 0
v -4.16 -8 0
v -3.84 -8 0
v -4.16 -8.32 0
v -4.48 -8.32 0
v -4.48 -8 0
v -4.16 -8 0
v -4.48 -8.32 0
v -4.8 -8.32 0
v -4.8 -8 0
v -4.48 -8 0
v -4.8 -8.32 0
v -5.12 -8.32 0
v -5.12 -8 0
v -4.8 -8 0
v -10.88 -8.32 0
v -11.2 -8.32 0
v -11.2 -8 0
v -10.88 -8 0
v -11.2 -8.32 0
v -11.52 -8.32 0
v -11.52 -8 0
v -11.2 -8 0
v -11.52 -8.32 0
v -11.84 -8.32 0
v -11.84 -8 0
v -11.52 -8 0
v -11.84 -8.32 0
v -12.16 -8.32 0
v -12.16 -8 0
v -11.84 -8 0
v -12.16 -8.32 0
v -12.48 -8.32 0
v -12.48 -8 0
v -12.16 -8 0
v -12.48 -8.32 0
v -12.8 -8.32 0
v -12.8 -8 0
v -12.48 -8 0
v -12.8 -8.32 0
v -13.12 -8.32 0
v -13.12 -8 0
v -12.8 -8 0
v -13.12 -8.32 0
v -13.44 -8.32 0
v -13.44 -8 0
v -13.12 -8 0
v -13.44 -8.32 0
v -13.76 -8.32 0
v -13.76 -8 0
v -13.44 -8 0
v -13.76 -8.32 0
v -14.08 -8.32 0
v -14.08 -8 0
v -13.76 -8 0
v -14.08 -8.32 0
v -14.4 -8.32 0
v -14.4 -8 0
v -14.08 -8 0
v -14.4 -8.32 0
v -14.72 -8.32 0
v -14.72 -8 0
v -14.4 -8 0
v -14.72 -8.32 0
v -15.04 -8.32 0
v -15.04 -8 0
v -14.72 -8 0
v 0 -10.24 0
v -0.32 -10.24 0
v -0.32 -9.92 0
v 0 -9.92 0
v -0.32 -10.24 0
v -0.64 -10.24 0
v -0.64 -9.92 0
v -0.32 -9.92 0
v -0.64 -10.24 0
v -0.96 -10.24 0
v -0.96 -9.92 0
v -0.64 -9.92 0
v -0.96 -10.24 0
v -1.28 -10.24 0
v -1.28 -9.92 0
v -0.96 -9.92 0
v -1.28 -10.24 0
v -1.6 -10.24 0
v -1.6 -9.92 0
v -1.28 -9.92 0
v -1.6 -10.24 0
v -1.92 -10.24 0
v -1.92 -9.92 0
v -1.6 -9.92 0
v -1.92 -10.24 0
v -2.24 -10.24 0
v -2.24 -9.92 0
v -1.92 -9.92 0
v -2.24 -10.24 0
v -2.56 -10.24 0
v -2.56 -9.92 0
v -2.24 -9.92 0
v -2.56 -10.24 0
v -2.88 -10.24 0
v -2.88 -9.92 0
v -2.56 -9.92 0
v -2.88 -10.24 0
v -3.2 -10.24 0
v -3.2 -9.92 0
v -2.88 -9.92 0
v -3.2 -10.24 0
v -3.52 -10.24 0
v -3.52 -9.92 0
v -3.2 -9.92 0
v -3.52 -10.24 0
v -3.84 -10.24 0
v -3.84 -9.92 0
v -3.52 -9.92 0
v -3.84 -10.24 0
v -4.16 -10.24 0
v -4.16 -9.92 0
v -3.84 -9.92 0
v -4.16 -10.24 0
v -4.48 -10.24 0
v -4.48 -9.92 0
v -4.16 -9.92 0
v -4.48 -10.24 0
v -4.8 -10.24 0
v -4.8 -9.92 0
v -4.48 -9.92 0
v -4.8 -10.24 0
v -5.12 -10.24 0
v -5.12 -9.92 0
v -4.8 -9.92 0
v -5.12 -10.24 0
v -5.44 -10.24 0
v -5.44 -9.92 0
v -5.12 -9.92 0
v -5.44 -10.24 0
v -5.76 -10.24 0
v -5.76 -9.92 0
v -5.44 -9.92 0
v -5.76 -10.24 0
v -6.08 -10.24 0
v -6.08 -9.92 0
v -5.76 -9.92 0
v -6.08 -10.24 0
v -6.4 -10.24 0
v -6.4 -9.92 0
v -6.08 -9.92 0
v -6.4 -10.24 0
v -6.72 -10.24 0
v -6.72 -9.92 0
v -6.4 -9.92 0
v -6.72 -10.24 0
v -7.04 -10.24 0
v -7.04 -9.92 0
v -6.72 -9.92 0
v -8.96 -10.24 0
v -9.28 -10.24 0
v -9.28 -9.92 0
v -8.96 -9.92 0
v -9.28 -10.24 0
v -9.599999 -10.24 0
v -9.599999 -9.92 0
v -9.28 -9.92 0
v -9.599999 -10.24 0
v -9.92 -10.24 0
v -9.92 -9.92 0
v -9.599999 -9.92 0
v -9.92 -10.24 0
v -10.24 -10.24 0
v -10.24 -9.92 0
v -9.92 -9.92 0
v -10.24 -10.24 0
v -10.56 -10.24 0
v -10.56 -9.92 0
v -10.24 -9.92 0
v -10.56 -10.24 0
v -10.88 -10.24 0
v -10.88 -9.92 0
v -10.56 -9.92 0
v -10.88 -10.24 0
v -11.2 -10.24 0
v -11.2 -9.92 0
v -10.88 -9.92 0
v -11.2 -10.24 0
v -11.52 -10.24 0
v -11.52 -9.92 0
v -11.2 -9.92 0
v -11.52 -10.24 0
v -11.84 -10.24 0
v -11.84 -9.92 0
v -11.52 -9.92 0
v -11.84 -10.24 0
v -12.16 -10.24 0
v -12.16 -9.92 0
v -11.84 -9.92 0
v -12.16 -10.24 0
v -12.48 -10.24 0
v -12.48 -9.92 0
v -12.16 -9.92 0
v -12.48 -10.24 0
v -12.8 -10.24 0
v -12.8 -9.92 0
v -12.48 -9.92 0
v -12.8 -10.24 0
v -13.12 -10.24 0
v -13.12 -9.92 0
v -12.8 -9.92 0
v -13.12 -10.24 0
v -13.44 -10.24 0
v -13.44 -9.92 0
v -13.12 -9.92 0
v -13.44 -10.24 0
v -13.76 -10.24 0
v -13.76 -9.92 0
v -13.44 -9.92 0
v -13.76 -10.24 0
v -14.08 -10.24 0
v -14.08 -9.92 0
v -13.76 -9.92 0
v -14.08 -10.24 0
v -14.4 -10.24 0
v -14.4 -9.92 0
v -14.08 -9.92 0
v -14.4 -10.24 0
v -14.72 -10.24 0
v -14.72 -9.92 0
v -14.4 -9.92 0
v -14.72 -10.24 0
v -15.04 -10.24 0
v -15.04 -9.92 0
v -14.72 -9.92 0
v -15.04 -10.24 0
v -15.36 -10.24 0
v -15.36 -9.92 0
v -15.04 -9.92 0
v -15.36 -10.24 0
v -15.68 -10.24 0
v -15.68 -9.92 0
v -15.36 -9.92 0
v -15.68 -10.24 0
v -16 -10.24 0
v -16 -9.92 0
v -15.68 -9.92 0
v -5.44 -11.84 0
v -5.76 -11.84 0
v -5.76 -11.52 0
v -5.44 -11.52 0
v -5.76 -11.84 0
v -6.08 -11.84 0
v -6.08 -11.52 0
v -5.76 -11.52 0
v -9.92 -11.84 0
v -10.24 -11.84 0
v -10.24 -11.52 0
v -9.92 -11.52 0
v -10.24 -11.84 0
v -10.56 -11.84 0
v -10.56 -11.52 0
v -10.24 -11.52 0
v -5.44 -14.08 0
v -5.76 -14.08 0
v -5.76 -13.76 0
v -5.44 -13.76 0
v -5.76 -14.08 0
v -6.08 -14.08 0
v -6.08 -13.76 0
v -5.76 -13.76 0
v -9.92 -14.08 0
v -10.24 -14.08 0
v -10.24 -13.76 0
v -9.92 -13.76 0
v -10.24 -14.08 0
v -10.56 -14.08 0
v -10.56 -13.76 0
v -10.24 -13.76 0

# Texture cooridinates (Count = 12)
vt 0.125 0.25
vt 0.1875 0.25
vt 0.1875 0.3333333
vt 0.125 0.3333333
vt 0.25 0.25
vt 0.25 0.3333333
vt 0.3125 0.25
vt 0.3125 0.3333333
vt 0 0.25
vt 0.0625 0.25
vt 0.0625 0.3333333
vt 0 0.3333333

# Normal
vn 0 0 -1

# Mesh description
g temple_mesh_0009

# Faces
f 1/1/1 2/2/1 3/3/1 4/4/1
f 5/2/1 6/5/1 7/6/1 8/3/1
f 9/2/1 10/5/1 11/6/1 12/3/1
f 13/2/1 14/5/1 15/6/1 16/3/1
f 17/2/1 18/5/1 19/6/1 20/3/1
f 21/2/1 22/5/1 23/6/1 24/3/1
f 25/2/1 26/5/1 27/6/1 28/3/1
f 29/2/1 30/5/1 31/6/1 32/3/1
f 33/2/1 34/5/1 35/6/1 36/3/1
f 37/2/1 38/5/1 39/6/1 40/3/1
f 41/2/1 42/5/1 43/6/1 44/3/1
f 45/2/1 46/5/1 47/6/1 48/3/1
f 49/2/1 50/5/1 51/6/1 52/3/1
f 53/2/1 54/5/1 55/6/1 56/3/1
f 57/2/1 58/5/1 59/6/1 60/3/1
f 61/2/1 62/5/1 63/6/1 64/3/1
f 65/2/1 66/5/1 67/6/1 68/3/1
f 69/2/1 70/5/1 71/6/1 72/3/1
f 73/2/1 74/5/1 75/6/1 76/3/1
f 77/2/1 78/5/1 79/6/1 80/3/1
f 81/2/1 82/5/1 83/6/1 84/3/1
f 85/2/1 86/5/1 87/6/1 88/3/1
f 89/2/1 90/5/1 91/6/1 92/3/1
f 93/5/1 94/7/1 95/8/1 96/6/1
f 97/2/1 98/5/1 99/6/1 100/3/1
f 101/2/1 102/5/1 103/6/1 104/3/1
f 105/2/1 106/5/1 107/6/1 108/3/1
f 109/2/1 110/5/1 111/6/1 112/3/1
f 113/9/1 114/10/1 115/11/1 116/12/1
f 117/10/1 118/1/1 119/4/1 120/11/1
f 121/9/1 122/10/1 123/11/1 124/12/1
f 125/10/1 126/1/1 127/4/1 128/11/1
f 129/9/1 130/10/1 131/11/1 132/12/1
f 133/10/1 134/1/1 135/4/1 136/11/1
f 137/9/1 138/10/1 139/11/1 140/12/1
f 141/10/1 142/1/1 143/4/1 144/11/1
f 145/9/1 146/10/1 147/11/1 148/12/1
f 149/2/1 150/5/1 151/6/1 152/3/1
f 153/2/1 154/5/1 155/6/1 156/3/1
f 157/2/1 158/5/1 159/6/1 160/3/1
f 161/2/1 162/5/1 163/6/1 164/3/1
f 165/2/1 166/5/1 167/6/1 168/3/1
f 169/2/1 170/5/1 171/6/1 172/3/1
f 173/2/1 174/5/1 175/6/1 176/3/1
f 177/2/1 178/5/1 179/6/1 180/3/1
f 181/2/1 182/5/1 183/6/1 184/3/1
f 185/2/1 186/5/1 187/6/1 188/3/1
f 189/2/1 190/5/1 191/6/1 192/3/1
f 193/5/1 194/7/1 195/8/1 196/6/1
f 197/1/1 198/2/1 199/3/1 200/4/1
f 201/2/1 202/5/1 203/6/1 204/3/1
f 205/2/1 206/5/1 207/6/1 208/3/1
f 209/2/1 210/5/1 211/6/1 212/3/1
f 213/2/1 214/5/1 215/6/1 216/3/1
f 217/2/1 218/5/1 219/6/1 220/3/1
f 221/2/1 222/5/1 223/6/1 224/3/1
f 225/2/1 226/5/1 227/6/1 228/3/1
f 229/2/1 230/5/1 231/6/1 232/3/1
f 233/2/1 234/5/1 235/6/1 236/3/1
f 237/2/1 238/5/1 239/6/1 240/3/1
f 241/2/1 242/5/1 243/6/1 244/3/1
f 245/10/1 246/1/1 247/4/1 248/11/1
f 249/2/1 250/5/1 251/6/1 252/3/1
f 253/2/1 254/5/1 255/6/1 256/3/1
f 257/2/1 258/5/1 259/6/1 260/3/1
f 261/2/1 262/5/1 263/6/1 264/3/1
f 265/2/1 266/5/1 267/6/1 268/3/1
f 269/2/1 270/5/1 271/6/1 272/3/1
f 273/2/1 274/5/1 275/6/1 276/3/1
f 277/2/1 278/5/1 279/6/1 280/3/1
f 281/2/1 282/5/1 283/6/1 284/3/1
f 285/2/1 286/5/1 287/6/1 288/3/1
f 289/2/1 290/5/1 291/6/1 292/3/1
f 293/2/1 294/5/1 295/6/1 296/3/1
f 297/2/1 298/5/1 299/6/1 300/3/1
f 301/2/1 302/5/1 303/6/1 304/3/1
f 305/2/1 306/5/1 307/6/1 308/3/1
f 309/2/1 310/5/1 311/6/1 312/3/1
f 313/2/1 314/5/1 315/6/1 316/3/1
f 317/2/1 318/5/1 319/6/1 320/3/1
f 321/2/1 322/5/1 323/6/1 324/3/1
f 325/2/1 326/5/1 327/6/1 328/3/1
f 329/2/1 330/5/1 331/6/1 332/3/1
f 333/5/1 334/7/1 335/8/1 336/6/1
f 337/1/1 338/2/1 339/3/1 340/4/1
f 341/2/1 342/5/1 343/6/1 344/3/1
f 345/2/1 346/5/1 347/6/1 348/3/1
f 349/2/1 350/5/1 351/6/1 352/3/1
f 353/2/1 354/5/1 355/6/1 356/3/1
f 357/2/1 358/5/1 359/6/1 360/3/1
f 361/2/1 362/5/1 363/6/1 364/3/1
f 365/2/1 366/5/1 367/6/1 368/3/1
f 369/2/1 370/5/1 371/6/1 372/3/1
f 373/2/1 374/5/1 375/6/1 376/3/1
f 377/2/1 378/5/1 379/6/1 380/3/1
f 381/2/1 382/5/1 383/6/1 384/3/1
f 385/2/1 386/5/1 387/6/1 388/3/1
f 389/2/1 390/5/1 391/6/1 392/3/1
f 393/2/1 394/5/1 395/6/1 396/3/1
f 397/2/1 398/5/1 399/6/1 400/3/1
f 401/2/1 402/5/1 403/6/1 404/3/1
f 405/2/1 406/5/1 407/6/1 408/3/1
f 409/2/1 410/5/1 411/6/1 412/3/1
f 413/2/1 414/5/1 415/6/1 416/3/1
f 417/2/1 418/5/1 419/6/1 420/3/1
f 421/2/1 422/5/1 423/6/1 424/3/1
f 425/9/1 426/10/1 427/11/1 428/12/1
f 429/10/1 430/1/1 431/4/1 432/11/1
f 433/9/1 434/10/1 435/11/1 436/12/1
f 437/10/1 438/1/1 439/4/1 440/11/1
f 441/9/1 442/10/1 443/11/1 444/12/1
f 445/10/1 446/1/1 447/4/1 448/11/1
f 449/9/1 450/10/1 451/11/1 452/12/1
f 453/10/1 454/1/1 455/4/1 456/11/1

