# Tiled2Unity generated file. Do not modify by hand.
# Wavefront file for 'temple_mesh_0013.obj'

# Vertices (Count = 48)
v -7.68 -3.2 0
v -8 -3.2 0
v -8 -2.88 0
v -7.68 -2.88 0
v -8 -3.2 0
v -8.32 -3.2 0
v -8.32 -2.88 0
v -8 -2.88 0
v -7.04 -10.56 0
v -7.36 -10.56 0
v -7.36 -10.24 0
v -7.04 -10.24 0
v -8.639999 -10.56 0
v -8.96 -10.56 0
v -8.96 -10.24 0
v -8.639999 -10.24 0
v -7.04 -11.84 0
v -7.36 -11.84 0
v -7.36 -11.52 0
v -7.04 -11.52 0
v -8.639999 -11.84 0
v -8.96 -11.84 0
v -8.96 -11.52 0
v -8.639999 -11.52 0
v -7.04 -13.12 0
v -7.36 -13.12 0
v -7.36 -12.8 0
v -7.04 -12.8 0
v -8.639999 -13.12 0
v -8.96 -13.12 0
v -8.96 -12.8 0
v -8.639999 -12.8 0
v -7.04 -14.4 0
v -7.36 -14.4 0
v -7.36 -14.08 0
v -7.04 -14.08 0
v -8.639999 -14.4 0
v -8.96 -14.4 0
v -8.96 -14.08 0
v -8.639999 -14.08 0
v -5.76 -15.68 0
v -6.08 -15.68 0
v -6.08 -15.36 0
v -5.76 -15.36 0
v -9.92 -15.68 0
v -10.24 -15.68 0
v -10.24 -15.36 0
v -9.92 -15.36 0

# Texture cooridinates (Count = 17)
vt 0.5625 0.5625
vt 0.625 0.5625
vt 0.625 0.625
vt 0.5625 0.625
vt 0.6875 0.5
vt 0.75 0.5
vt 0.75 0.5625
vt 0.6875 0.5625
vt 0.5 0.4375
vt 0.5625 0.4375
vt 0.5625 0.5
vt 0.5 0.5
vt 0.625 0.4375
vt 0.625 0.5
vt 0.6875 0.4375
vt 0.5 0.5625
vt 0.5 0.625

# Normal
vn 0 0 -1

# Mesh description
g temple_mesh_0013

# Faces
f 1/1/1 2/2/1 3/3/1 4/4/1
f 5/5/1 6/6/1 7/7/1 8/8/1
f 9/9/1 10/10/1 11/11/1 12/12/1
f 13/9/1 14/10/1 15/11/1 16/12/1
f 17/10/1 18/13/1 19/14/1 20/11/1
f 21/13/1 22/15/1 23/5/1 24/14/1
f 25/10/1 26/13/1 27/14/1 28/11/1
f 29/13/1 30/15/1 31/5/1 32/14/1
f 33/10/1 34/13/1 35/14/1 36/11/1
f 37/13/1 38/15/1 39/5/1 40/14/1
f 41/16/1 42/1/1 43/4/1 44/17/1
f 45/16/1 46/1/1 47/4/1 48/17/1

