# Tiled2Unity generated file. Do not modify by hand.
# Wavefront file for 'temple_mesh_0020.obj'

# Vertices (Count = 80)
v -5.76 -6.08 0
v -6.08 -6.08 0
v -6.08 -5.76 0
v -5.76 -5.76 0
v -9.92 -6.08 0
v -10.24 -6.08 0
v -10.24 -5.76 0
v -9.92 -5.76 0
v -5.12 -6.4 0
v -5.44 -6.4 0
v -5.44 -6.08 0
v -5.12 -6.08 0
v -10.56 -6.4 0
v -10.88 -6.4 0
v -10.88 -6.08 0
v -10.56 -6.08 0
v -1.28 -8 0
v -1.6 -8 0
v -1.6 -7.68 0
v -1.28 -7.68 0
v -4.48 -8 0
v -4.8 -8 0
v -4.8 -7.68 0
v -4.48 -7.68 0
v -11.2 -8 0
v -11.52 -8 0
v -11.52 -7.68 0
v -11.2 -7.68 0
v -14.4 -8 0
v -14.72 -8 0
v -14.72 -7.68 0
v -14.4 -7.68 0
v -6.72 -15.04 0
v -7.04 -15.04 0
v -7.04 -14.72 0
v -6.72 -14.72 0
v -8.96 -15.04 0
v -9.28 -15.04 0
v -9.28 -14.72 0
v -8.96 -14.72 0
v -6.72 -15.36 0
v -7.04 -15.36 0
v -7.04 -15.04 0
v -6.72 -15.04 0
v -7.04 -15.36 0
v -7.36 -15.36 0
v -7.36 -15.04 0
v -7.04 -15.04 0
v -7.36 -15.36 0
v -7.68 -15.36 0
v -7.68 -15.04 0
v -7.36 -15.04 0
v -7.68 -15.36 0
v -8 -15.36 0
v -8 -15.04 0
v -7.68 -15.04 0
v -8 -15.36 0
v -8.32 -15.36 0
v -8.32 -15.04 0
v -8 -15.04 0
v -8.32 -15.36 0
v -8.639999 -15.36 0
v -8.639999 -15.04 0
v -8.32 -15.04 0
v -8.639999 -15.36 0
v -8.96 -15.36 0
v -8.96 -15.04 0
v -8.639999 -15.04 0
v -8.96 -15.36 0
v -9.28 -15.36 0
v -9.28 -15.04 0
v -8.96 -15.04 0
v -7.04 -15.68 0
v -7.36 -15.68 0
v -7.36 -15.36 0
v -7.04 -15.36 0
v -8.639999 -15.68 0
v -8.96 -15.68 0
v -8.96 -15.36 0
v -8.639999 -15.36 0

# Texture cooridinates (Count = 12)
vt 0.125 0.9375
vt 0.1875 0.9375
vt 0.1875 1
vt 0.125 1
vt 0.1875 0.5
vt 0.25 0.5
vt 0.25 0.5625
vt 0.1875 0.5625
vt 0.1875 0.4375
vt 0.25 0.4375
vt 0.3125 0.5
vt 0.3125 0.5625

# Normal
vn 0 0 -1

# Mesh description
g temple_mesh_0020

# Faces
f 1/1/1 2/2/1 3/3/1 4/4/1
f 5/1/1 6/2/1 7/3/1 8/4/1
f 9/1/1 10/2/1 11/3/1 12/4/1
f 13/1/1 14/2/1 15/3/1 16/4/1
f 17/1/1 18/2/1 19/3/1 20/4/1
f 21/1/1 22/2/1 23/3/1 24/4/1
f 25/1/1 26/2/1 27/3/1 28/4/1
f 29/1/1 30/2/1 31/3/1 32/4/1
f 33/5/1 34/6/1 35/7/1 36/8/1
f 37/5/1 38/6/1 39/7/1 40/8/1
f 41/9/1 42/10/1 43/6/1 44/5/1
f 45/5/1 46/6/1 47/7/1 48/8/1
f 49/6/1 50/11/1 51/12/1 52/7/1
f 53/6/1 54/11/1 55/12/1 56/7/1
f 57/6/1 58/11/1 59/12/1 60/7/1
f 61/6/1 62/11/1 63/12/1 64/7/1
f 65/5/1 66/6/1 67/7/1 68/8/1
f 69/9/1 70/10/1 71/6/1 72/5/1
f 73/9/1 74/10/1 75/6/1 76/5/1
f 77/9/1 78/10/1 79/6/1 80/5/1

