# Tiled2Unity generated file. Do not modify by hand.
# Wavefront file for 'temple_mesh_0017.obj'

# Vertices (Count = 16)
v -0.96 -8 0
v -1.28 -8 0
v -1.28 -7.68 0
v -0.96 -7.68 0
v -14.72 -8 0
v -15.04 -8 0
v -15.04 -7.68 0
v -14.72 -7.68 0
v -0.96 -8.32 0
v -1.28 -8.32 0
v -1.28 -8 0
v -0.96 -8 0
v -14.72 -8.32 0
v -15.04 -8.32 0
v -15.04 -8 0
v -14.72 -8 0

# Texture cooridinates (Count = 8)
vt 0.125 0.5
vt 0.1875 0.5
vt 0.1875 0.5833334
vt 0.125 0.5833334
vt 0.3125 0.5
vt 0.375 0.5
vt 0.375 0.5833334
vt 0.3125 0.5833334

# Normal
vn 0 0 -1

# Mesh description
g temple_mesh_0017

# Faces
f 1/1/1 2/2/1 3/3/1 4/4/1
f 5/5/1 6/6/1 7/7/1 8/8/1
f 9/1/1 10/2/1 11/3/1 12/4/1
f 13/5/1 14/6/1 15/7/1 16/8/1

