# Tiled2Unity generated file. Do not modify by hand.
# Wavefront file for 'temple_mesh_0014.obj'

# Vertices (Count = 80)
v -5.76 -6.4 0
v -6.08 -6.4 0
v -6.08 -6.08 0
v -5.76 -6.08 0
v -9.92 -6.4 0
v -10.24 -6.4 0
v -10.24 -6.08 0
v -9.92 -6.08 0
v -5.12 -6.72 0
v -5.44 -6.72 0
v -5.44 -6.4 0
v -5.12 -6.4 0
v -5.76 -6.72 0
v -6.08 -6.72 0
v -6.08 -6.4 0
v -5.76 -6.4 0
v -9.92 -6.72 0
v -10.24 -6.72 0
v -10.24 -6.4 0
v -9.92 -6.4 0
v -10.56 -6.72 0
v -10.88 -6.72 0
v -10.88 -6.4 0
v -10.56 -6.4 0
v -5.12 -7.04 0
v -5.44 -7.04 0
v -5.44 -6.72 0
v -5.12 -6.72 0
v -10.56 -7.04 0
v -10.88 -7.04 0
v -10.88 -6.72 0
v -10.56 -6.72 0
v -1.28 -8.32 0
v -1.6 -8.32 0
v -1.6 -8 0
v -1.28 -8 0
v -4.48 -8.32 0
v -4.8 -8.32 0
v -4.8 -8 0
v -4.48 -8 0
v -11.2 -8.32 0
v -11.52 -8.32 0
v -11.52 -8 0
v -11.2 -8 0
v -14.4 -8.32 0
v -14.72 -8.32 0
v -14.72 -8 0
v -14.4 -8 0
v -1.28 -8.639999 0
v -1.6 -8.639999 0
v -1.6 -8.32 0
v -1.28 -8.32 0
v -4.48 -8.639999 0
v -4.8 -8.639999 0
v -4.8 -8.32 0
v -4.48 -8.32 0
v -11.2 -8.639999 0
v -11.52 -8.639999 0
v -11.52 -8.32 0
v -11.2 -8.32 0
v -14.4 -8.639999 0
v -14.72 -8.639999 0
v -14.72 -8.32 0
v -14.4 -8.32 0
v -6.72 -15.68 0
v -7.04 -15.68 0
v -7.04 -15.36 0
v -6.72 -15.36 0
v -8.96 -15.68 0
v -9.28 -15.68 0
v -9.28 -15.36 0
v -8.96 -15.36 0
v -7.04 -16 0
v -7.36 -16 0
v -7.36 -15.68 0
v -7.04 -15.68 0
v -8.639999 -16 0
v -8.96 -16 0
v -8.96 -15.68 0
v -8.639999 -15.68 0

# Texture cooridinates (Count = 10)
vt 0.125 0.875
vt 0.1875 0.875
vt 0.1875 0.9375
vt 0.125 0.9375
vt 0.125 0.8125
vt 0.1875 0.8125
vt 0.1875 0.375
vt 0.25 0.375
vt 0.25 0.4375
vt 0.1875 0.4375

# Normal
vn 0 0 -1

# Mesh description
g temple_mesh_0014

# Faces
f 1/1/1 2/2/1 3/3/1 4/4/1
f 5/1/1 6/2/1 7/3/1 8/4/1
f 9/1/1 10/2/1 11/3/1 12/4/1
f 13/5/1 14/6/1 15/2/1 16/1/1
f 17/5/1 18/6/1 19/2/1 20/1/1
f 21/1/1 22/2/1 23/3/1 24/4/1
f 25/5/1 26/6/1 27/2/1 28/1/1
f 29/5/1 30/6/1 31/2/1 32/1/1
f 33/1/1 34/2/1 35/3/1 36/4/1
f 37/1/1 38/2/1 39/3/1 40/4/1
f 41/1/1 42/2/1 43/3/1 44/4/1
f 45/1/1 46/2/1 47/3/1 48/4/1
f 49/5/1 50/6/1 51/2/1 52/1/1
f 53/5/1 54/6/1 55/2/1 56/1/1
f 57/5/1 58/6/1 59/2/1 60/1/1
f 61/5/1 62/6/1 63/2/1 64/1/1
f 65/7/1 66/8/1 67/9/1 68/10/1
f 69/7/1 70/8/1 71/9/1 72/10/1
f 73/7/1 74/8/1 75/9/1 76/10/1
f 77/7/1 78/8/1 79/9/1 80/10/1

