# Tiled2Unity generated file. Do not modify by hand.
# Wavefront file for 'temple_mesh_0021.obj'

# Vertices (Count = 32)
v -7.04 -10.24 0
v -7.36 -10.24 0
v -7.36 -9.92 0
v -7.04 -9.92 0
v -8.639999 -10.24 0
v -8.96 -10.24 0
v -8.96 -9.92 0
v -8.639999 -9.92 0
v -7.04 -11.52 0
v -7.36 -11.52 0
v -7.36 -11.2 0
v -7.04 -11.2 0
v -8.639999 -11.52 0
v -8.96 -11.52 0
v -8.96 -11.2 0
v -8.639999 -11.2 0
v -7.04 -12.8 0
v -7.36 -12.8 0
v -7.36 -12.48 0
v -7.04 -12.48 0
v -8.639999 -12.8 0
v -8.96 -12.8 0
v -8.96 -12.48 0
v -8.639999 -12.48 0
v -7.04 -14.08 0
v -7.36 -14.08 0
v -7.36 -13.76 0
v -7.04 -13.76 0
v -8.639999 -14.08 0
v -8.96 -14.08 0
v -8.96 -13.76 0
v -8.639999 -13.76 0

# Texture cooridinates (Count = 10)
vt 0.75 0.625
vt 0.8125 0.625
vt 0.8125 0.6875
vt 0.75 0.6875
vt 0.5625 0.625
vt 0.625 0.625
vt 0.625 0.6875
vt 0.5625 0.6875
vt 0.6875 0.625
vt 0.6875 0.6875

# Normal
vn 0 0 -1

# Mesh description
g temple_mesh_0021

# Faces
f 1/1/1 2/2/1 3/3/1 4/4/1
f 5/1/1 6/2/1 7/3/1 8/4/1
f 9/5/1 10/6/1 11/7/1 12/8/1
f 13/6/1 14/9/1 15/10/1 16/7/1
f 17/5/1 18/6/1 19/7/1 20/8/1
f 21/6/1 22/9/1 23/10/1 24/7/1
f 25/5/1 26/6/1 27/7/1 28/8/1
f 29/6/1 30/9/1 31/10/1 32/7/1

