# Tiled2Unity generated file. Do not modify by hand.
# Wavefront file for 'temple_mesh_0019.obj'

# Vertices (Count = 16)
v -6.72 -1.92 0
v -7.04 -1.92 0
v -7.04 -1.6 0
v -6.72 -1.6 0
v -8.96 -1.92 0
v -9.28 -1.92 0
v -9.28 -1.6 0
v -8.96 -1.6 0
v -6.72 -2.24 0
v -7.04 -2.24 0
v -7.04 -1.92 0
v -6.72 -1.92 0
v -8.96 -2.24 0
v -9.28 -2.24 0
v -9.28 -1.92 0
v -8.96 -1.92 0

# Texture cooridinates (Count = 9)
vt 0.1875 0.1666667
vt 0.25 0.1666667
vt 0.25 0.25
vt 0.1875 0.25
vt 0.3125 0.1666667
vt 0.3125 0.25
vt 0.1875 0.08333331
vt 0.25 0.08333331
vt 0.3125 0.08333331

# Normal
vn 0 0 -1

# Mesh description
g temple_mesh_0019

# Faces
f 1/1/1 2/2/1 3/3/1 4/4/1
f 5/2/1 6/5/1 7/6/1 8/3/1
f 9/7/1 10/8/1 11/2/1 12/1/1
f 13/8/1 14/9/1 15/5/1 16/2/1

